<svg xmlns="http://www.w3.org/2000/svg" xmlns:xlink="http://www.w3.org/1999/xlink" width="1240" height="268" viewBox="0 0 1240 268"><defs><style>.a,.e{fill:#ffc97a;}.a{stroke:#707070;}.b{fill:#ffebc9;}.c,.d{mix-blend-mode:multiply;isolation:isolate;}.c{clip-path:url(#a);}.f{clip-path:url(#b);}.g{fill:#ffce79;opacity:0.25;}</style><clipPath id="a"><rect class="a" width="129.188" height="58.335" transform="translate(0)"/></clipPath><clipPath id="b"><rect class="b" width="1240" height="268" rx="20"/></clipPath></defs><rect class="b" width="1240" height="268" rx="20"/><g class="c" transform="translate(1086.12)"><g class="d" transform="translate(3.004 -67.233)"><path class="e" d="M62.591,0A63.837,63.837,0,0,0,49.977,1.255,62.634,62.634,0,0,0,10.69,27.245a61.556,61.556,0,0,0-5.771,10.5,61.161,61.161,0,0,0,0,48.107,61.556,61.556,0,0,0,5.771,10.5,62.677,62.677,0,0,0,39.287,25.99,64,64,0,0,0,25.229,0,62.634,62.634,0,0,0,39.287-25.99,61.557,61.557,0,0,0,5.771-10.5,61.161,61.161,0,0,0,0-48.107,61.558,61.558,0,0,0-5.771-10.5A62.677,62.677,0,0,0,75.205,1.255,63.837,63.837,0,0,0,62.591,0Zm-.233,94.264a33.3,33.3,0,0,1-6.581-.655,32.676,32.676,0,0,1-20.5-13.559,32.113,32.113,0,0,1-3.011-5.476,31.908,31.908,0,0,1,0-25.1A32.114,32.114,0,0,1,35.281,44a32.7,32.7,0,0,1,20.5-13.559,33.389,33.389,0,0,1,13.162,0A32.676,32.676,0,0,1,89.435,44a32.115,32.115,0,0,1,3.011,5.476,31.908,31.908,0,0,1,0,25.1,32.115,32.115,0,0,1-3.011,5.476,32.7,32.7,0,0,1-20.5,13.559A33.3,33.3,0,0,1,62.358,94.264Z"/></g></g><g class="f"><path class="g" d="M1841.472,645.668,1699.261,294.407l40.4-161.326L1456.428,0c-3.746,3.554-7.208,7.373-11.291,10.619-30.574,24.318-59.276,50.77-92.343,72.288-65.564,42.656-138.08,50.217-214.123,23.123q-39.7-14.143-78.34-30.382c-47.676-20.089-97.226-31.953-151.2-29.071-33.783,1.8-63.649,10.861-89.737,29.74-39.046,28.258-66.313,64.784-97.133,98.873-16.33,18.064-33,36.049-51.285,52.653-37.6,34.146-83.159,49.88-138.991,45.836-60.058-4.352-110.166-21.485-146.227-64.62-30.091-35.993-60.583-71.91-93.791-105.78C238.214,48.453,167.768,30.19,86.128,44.669,56.9,49.85,28.682,59.332,0,66.85L177.94,488.493Z" transform="translate(-105.661 427.442) rotate(-19)"/></g></svg>