<svg xmlns="http://www.w3.org/2000/svg" xmlns:xlink="http://www.w3.org/1999/xlink" width="1240" height="268" viewBox="0 0 1240 268"><defs><style>.a,.f{fill:#668a40;}.a{stroke:#707070;}.b{fill:#ffebc9;}.c{fill:#e3eadb;}.d{opacity:0.75;clip-path:url(#a);}.d,.e{mix-blend-mode:multiply;isolation:isolate;}.g{clip-path:url(#b);}.h{fill:#bbcaa9;opacity:0.25;}</style><clipPath id="a"><rect class="a" width="129.188" height="58.335" transform="translate(0)"/></clipPath><clipPath id="b"><rect class="b" width="1240" height="268" rx="20" transform="translate(180.051 1691)"/></clipPath></defs><g transform="translate(-180.051 -1691)"><rect class="c" width="1240" height="268" rx="20" transform="translate(180.051 1691)"/><g class="d" transform="translate(204.743 1691)"><g class="e" transform="translate(1.002 -67.233)"><path class="f" d="M62.591,123.591a63.837,63.837,0,0,1-12.614-1.255A62.634,62.634,0,0,1,10.69,96.346a61.556,61.556,0,0,1-5.771-10.5,61.161,61.161,0,0,1,0-48.107,61.556,61.556,0,0,1,5.771-10.5A62.677,62.677,0,0,1,49.977,1.255a64,64,0,0,1,25.229,0,62.634,62.634,0,0,1,39.287,25.99,61.557,61.557,0,0,1,5.771,10.5,61.161,61.161,0,0,1,0,48.107,61.558,61.558,0,0,1-5.771,10.5,62.677,62.677,0,0,1-39.287,25.99A63.837,63.837,0,0,1,62.591,123.591Zm-.233-94.264a33.3,33.3,0,0,0-6.581.655,32.676,32.676,0,0,0-20.5,13.559,32.113,32.113,0,0,0-3.011,5.476,31.908,31.908,0,0,0,0,25.1,32.114,32.114,0,0,0,3.011,5.476,32.7,32.7,0,0,0,20.5,13.559,33.389,33.389,0,0,0,13.162,0,32.676,32.676,0,0,0,20.5-13.559,32.115,32.115,0,0,0,3.011-5.476,31.908,31.908,0,0,0,0-25.1,32.115,32.115,0,0,0-3.011-5.476,32.7,32.7,0,0,0-20.5-13.559A33.3,33.3,0,0,0,62.358,29.327Z" transform="translate(125.182 123.591) rotate(180)"/></g></g><g class="g"><path class="h" d="M1841.472,0,1699.261,351.261l40.4,161.326L1456.428,645.668c-3.746-3.554-7.208-7.373-11.291-10.619-30.574-24.318-59.276-50.77-92.343-72.288-65.564-42.656-138.08-50.217-214.123-23.123q-39.7,14.143-78.34,30.382c-47.676,20.089-97.226,31.953-151.2,29.071-33.783-1.8-63.649-10.861-89.737-29.74-39.046-28.258-66.313-64.784-97.133-98.873-16.33-18.064-33-36.049-51.285-52.653-37.6-34.146-83.159-49.88-138.991-45.836-60.058,4.352-110.166,21.485-146.227,64.62-30.091,35.993-60.583,71.91-93.791,105.78C238.214,597.215,167.768,615.478,86.128,601,56.9,595.818,28.682,586.336,0,578.818L177.94,157.175Z" transform="matrix(-0.946, -0.326, 0.326, -0.946, 1315.503, 2728.933)"/></g></g></svg>